<svg xmlns="http://www.w3.org/2000/svg" viewBox="0 0 640 800" fill="none">
  <defs>
    <linearGradient id="bg" x1="0" y1="0" x2="640" y2="800" gradientUnits="userSpaceOnUse">
      <stop stop-color="#1a0b2e"/>
      <stop offset="0.45" stop-color="#2d1155"/>
      <stop offset="1" stop-color="#12081f"/>
    </linearGradient>
    <linearGradient id="bolt" x1="250" y1="80" x2="420" y2="720" gradientUnits="userSpaceOnUse">
      <stop stop-color="#e9d5ff"/>
      <stop offset="0.35" stop-color="#c084fc"/>
      <stop offset="0.7" stop-color="#a855f7"/>
      <stop offset="1" stop-color="#7c3aed"/>
    </linearGradient>
    <linearGradient id="ring" x1="120" y1="200" x2="520" y2="620" gradientUnits="userSpaceOnUse">
      <stop stop-color="#d946ef" stop-opacity="0.9"/>
      <stop offset="1" stop-color="#7c3aed" stop-opacity="0.2"/>
    </linearGradient>
    <radialGradient id="glow" cx="50%" cy="42%" r="45%">
      <stop stop-color="#a855f7" stop-opacity="0.55"/>
      <stop offset="1" stop-color="#a855f7" stop-opacity="0"/>
    </radialGradient>
    <filter id="soft" x="-20%" y="-20%" width="140%" height="140%">
      <feGaussianBlur stdDeviation="8"/>
    </filter>
  </defs>
  <rect width="640" height="800" fill="url(#bg)"/>
  <ellipse cx="320" cy="340" rx="220" ry="240" fill="url(#glow)"/>
  <circle cx="320" cy="360" r="210" stroke="url(#ring)" stroke-width="2" opacity="0.7"/>
  <circle cx="320" cy="360" r="168" stroke="#c084fc" stroke-width="1" opacity="0.25"/>
  <path d="M350 90 L250 360 H310 L270 710 L420 320 H350 L390 90 Z" fill="url(#bolt)" filter="url(#soft)" opacity="0.55"/>
  <path d="M350 90 L250 360 H310 L270 710 L420 320 H350 L390 90 Z" fill="url(#bolt)"/>
  <text x="320" y="620" text-anchor="middle" fill="#f5f3ff" font-family="Arial Black, Arial, sans-serif" font-size="72" font-weight="900" letter-spacing="8">ZEUS</text>
  <text x="320" y="660" text-anchor="middle" fill="#c084fc" font-family="Arial, sans-serif" font-size="22" font-weight="700" letter-spacing="14">MARAUDERS</text>
  <rect x="210" y="680" width="220" height="3" rx="2" fill="url(#bolt)" opacity="0.8"/>
</svg>
